<svg width="18" height="17" viewBox="0 0 18 17" fill="none" xmlns="http://www.w3.org/2000/svg">
<path fill-rule="evenodd" clip-rule="evenodd" d="M15.4491 11.4674C15.4491 13.1164 14.1038 14.4576 12.4497 14.4576H5.75183C4.09867 14.4576 2.75341 13.1164 2.75341 11.4674V4.79022C2.75341 3.14217 4.09867 1.80106 5.75183 1.80106H12.4497C14.1038 1.80106 15.4491 3.14217 15.4491 4.79022V11.4674ZM12.4497 0H5.75183C3.10299 0 0.946777 2.14956 0.946777 4.79022V11.4674C0.946777 14.1091 3.10299 16.2577 5.75183 16.2577H12.4497C15.0995 16.2577 17.2557 14.1091 17.2557 11.4674V4.79022C17.2557 2.14956 15.0995 0 12.4497 0Z" fill="#12153A"/>
<path fill-rule="evenodd" clip-rule="evenodd" d="M9.08873 10.4052C7.81168 10.4034 6.7781 9.36919 6.77999 8.09608C6.78189 6.82486 7.81641 5.79447 9.09252 5.79447C10.3696 5.79825 11.4032 6.83053 11.4041 8.10364C11.4022 9.37675 10.3658 10.4071 9.08873 10.4052ZM9.09252 3.7998C6.70799 3.7998 4.77441 5.72647 4.77441 8.10364C4.77441 10.4808 6.70799 12.4075 9.09252 12.4075C11.477 12.4075 13.4097 10.4808 13.4097 8.10364C13.4078 5.72742 11.4761 3.80075 9.09252 3.7998Z" fill="#12153A"/>
<path fill-rule="evenodd" clip-rule="evenodd" d="M13.2768 2.70093H13.274C12.5919 2.70187 12.0396 3.25437 12.0405 3.93437C12.0415 4.61532 12.5957 5.16593 13.2778 5.16498C13.9599 5.16404 14.5122 4.61154 14.5113 3.93154C14.5113 3.25248 13.9589 2.70093 13.2768 2.70093Z" fill="#12153A"/>
</svg>
