<svg width="18" height="17" viewBox="0 0 18 17" fill="none" xmlns="http://www.w3.org/2000/svg">
<path fill-rule="evenodd" clip-rule="evenodd" d="M3.97796 5.3916H0.201172V16.5285H3.97796V5.3916Z" fill="#12153A"/>
<path fill-rule="evenodd" clip-rule="evenodd" d="M4.21907 1.92856C4.21907 1.37763 4.0185 0.905405 3.65656 0.550924C3.25479 0.197076 2.77264 0 2.12979 0C1.48694 0 0.96429 0.196443 0.5625 0.550924C0.16071 0.905405 0 1.37763 0 1.92856C0 2.47948 0.16071 2.95171 0.5625 3.30619C0.92379 3.66004 1.44643 3.85711 2.08929 3.85711C2.73214 3.85711 3.25479 3.66067 3.65656 3.30619C4.05835 2.95171 4.21907 2.47948 4.21907 1.92856Z" fill="#12153A"/>
<path fill-rule="evenodd" clip-rule="evenodd" d="M17.5989 10.1139L17.5995 10.1132C17.5995 8.49949 17.2376 7.24023 16.434 6.37449C15.6304 5.54841 14.5858 5.11523 13.2596 5.11523C12.7774 5.11523 12.3352 5.15427 11.9334 5.27264C11.5721 5.39101 11.2102 5.58745 10.9691 5.78452C10.6875 5.9816 10.4464 6.17804 10.2857 6.37512C10.125 6.53252 10.0042 6.76864 9.84344 7.00475V5.39101H6.06665L6.10715 5.90289V9.24812C6.10715 11.098 6.10715 13.5378 6.06665 16.5285H9.84344V10.3109C9.84344 9.91741 9.88394 9.6026 9.9643 9.40552C10.125 9.01201 10.3661 8.6972 10.728 8.42141C11.0494 8.18531 11.4512 8.02789 11.9334 8.02789C12.5762 8.02789 13.0584 8.26401 13.3798 8.6972C13.7012 9.16941 13.8221 9.76 13.8221 10.547V16.5285H17.5989V10.1139Z" fill="#12153A"/>
</svg>
