<svg width="18" height="15" viewBox="0 0 18 15" fill="none" xmlns="http://www.w3.org/2000/svg">
<path fill-rule="evenodd" clip-rule="evenodd" d="M17.4675 0.27085C16.7833 0.712856 15.9915 1.02696 15.1565 1.21693C14.4622 0.440195 13.48 -0.00155813 12.4509 4.12966e-06C10.4093 4.12966e-06 8.754 1.7022 8.754 3.78056C8.754 4.0815 8.78526 4.37304 8.81837 4.66458C5.77438 4.4953 3.05227 2.9906 1.22679 0.686524C0.909577 1.2661 0.728839 1.91332 0.698922 2.5768C0.735707 3.92163 1.37945 5.07837 2.35426 5.75548C1.77489 5.74608 1.20472 5.5768 0.708118 5.28526V5.3605C0.708118 7.17554 1.97721 8.70846 3.67854 9.07523C3.36586 9.14106 3.03479 9.18808 2.69453 9.20689C2.46462 9.18808 2.23471 9.16927 2.03239 9.14106C2.48301 10.627 3.84407 11.7179 5.47182 11.7743C4.1415 12.804 2.52359 13.3709 0.85526 13.3918C0.57937 13.3636 0.285087 13.3542 0 13.326C1.69091 14.4226 3.65257 15.0033 5.65483 15C12.4472 15 16.1662 9.2351 16.1515 4.26583C16.1653 4.06834 16.1607 3.90846 16.1515 3.72226C16.8844 3.19717 17.5119 2.53312 18 1.76615C17.3333 2.08592 16.6196 2.29087 15.8876 2.37273C16.6546 1.90261 17.2195 1.15355 17.4694 0.275552" fill="#12153A"/>
</svg>
